<?xml version="1.0" encoding="UTF-8"?>
<svg width="512px" height="512px" viewBox="0 0 512 512" version="1.1" xmlns="http://www.w3.org/2000/svg" xmlns:xlink="http://www.w3.org/1999/xlink">
    <title>Logo Circle White</title>
    <defs>
        <linearGradient x1="100%" y1="0%" x2="0%" y2="100%" id="linearGradient-1">
            <stop stop-color="#55A7E6" offset="0%"></stop>
            <stop stop-color="#6307ED" offset="100%"></stop>
        </linearGradient>
    </defs>
    <g id="Logo-Circle-White" stroke="none" stroke-width="1" fill="none" fill-rule="evenodd">
        <circle id="Oval-Copy-2" fill="#333333" cx="256" cy="256" r="256"></circle>
        <path d="M256,0 C397.384896,0 512,114.615104 512,256 C512,397.384896 397.384896,512 256,512 C114.615104,512 0,397.384896 0,256 C0,114.615104 114.615104,0 256,0 Z M117.575286,204.162688 C111.947519,198.54432 102.835578,198.536193 97.197799,204.144515 L97.197799,204.144515 L97.14477,204.197544 C91.5714093,209.800205 91.5951617,218.86016 97.1978224,224.433521 L97.1978224,224.433521 L129.432734,256.499855 L97.1977874,288.566444 L97.1977874,288.566444 L97.144793,288.619439 C91.5714003,294.222106 91.5951318,303.282093 97.197799,308.855485 C102.835574,314.463803 111.947512,314.455666 117.575262,308.837288 L117.575262,308.837288 L157.240197,269.238409 C157.247284,269.231334 157.254365,269.224252 157.26144,269.217165 C164.285,262.181856 164.275476,250.784891 157.240167,243.76133 L157.240167,243.76133 Z M243.354167,221 L243.122549,221.004003 C239.662734,221.123762 236.868224,223.916119 236.772158,227.403176 L236.772158,227.403176 L236.273082,245.518803 L221.162468,236.513051 L220.951105,236.39231 C217.973032,234.763412 214.218872,235.711264 212.379886,238.597212 C210.569589,241.43814 211.405079,245.208702 214.246006,247.018999 C214.298569,247.052493 214.351642,247.08518 214.405207,247.117047 L214.405207,247.117047 L230.965182,256.969099 L215.084237,266.013745 L214.866151,266.143001 C211.926495,267.954888 210.668743,271.609364 211.901013,274.860513 C212.954084,277.638876 216.060074,279.0375 218.838436,277.98443 C219.07207,277.895876 219.299252,277.791154 219.518331,277.671025 L219.518331,277.671025 L236.273082,268.483783 L236.249287,286.240234 L236.253052,286.477236 C236.373052,290.095967 239.341963,292.995104 242.990953,292.999994 L242.990953,292.999994 C246.72832,293 249.75072,289.9776 249.750714,286.240234 L249.750714,286.240234 L249.726918,268.481197 L266.183218,277.609009 L266.391667,277.719306 C269.187455,279.12854 272.621265,278.088267 274.15343,275.325967 C274.215478,275.214101 274.273849,275.100234 274.328447,274.984549 C275.833772,271.795035 274.618475,267.984454 271.544487,266.255407 L271.544487,266.255407 L255.034818,256.969099 L271.544487,247.682791 L271.755925,247.558816 C274.673529,245.776843 275.798765,242.068988 274.328447,238.953648 C272.949517,236.031941 269.463161,234.781273 266.541453,236.160204 C266.422221,236.216477 266.304925,236.276764 266.189766,236.340964 L266.189766,236.340964 L249.726918,245.518803 L249.751189,227.405599 L249.747458,227.176153 C249.631248,223.749284 246.818912,221.004637 243.362738,221.000006 L243.362738,221.000006 L243.354167,221 Z M318.354167,221 L318.122549,221.004003 C314.662734,221.123762 311.868224,223.916119 311.772158,227.403176 L311.772158,227.403176 L311.273082,245.518803 L296.162468,236.513051 L295.951105,236.39231 C292.973032,234.763412 289.218872,235.711264 287.379886,238.597212 C285.569589,241.43814 286.405079,245.208702 289.246006,247.018999 C289.298569,247.052493 289.351642,247.08518 289.405207,247.117047 L289.405207,247.117047 L305.965182,256.969099 L290.084237,266.013745 L289.866151,266.143001 C286.926495,267.954888 285.668743,271.609364 286.901013,274.860513 C287.954084,277.638876 291.060074,279.0375 293.838436,277.98443 C294.07207,277.895876 294.299252,277.791154 294.518331,277.671025 L294.518331,277.671025 L311.273082,268.483783 L311.249287,286.240234 L311.253052,286.477236 C311.373052,290.095967 314.341963,292.995104 317.990953,292.999994 L317.990953,292.999994 C321.72832,293 324.75072,289.9776 324.750714,286.240234 L324.750714,286.240234 L324.726918,268.481197 L341.183218,277.609009 L341.391667,277.719306 C344.187455,279.12854 347.621265,278.088267 349.15343,275.325967 C349.215478,275.214101 349.273849,275.100234 349.328447,274.984549 C350.833772,271.795035 349.618475,267.984454 346.544487,266.255407 L346.544487,266.255407 L330.034818,256.969099 L346.544487,247.682791 L346.755925,247.558816 C349.673529,245.776843 350.798765,242.068988 349.328447,238.953648 C347.949517,236.031941 344.463161,234.781273 341.541453,236.160204 C341.422221,236.216477 341.304925,236.276764 341.189766,236.340964 L341.189766,236.340964 L324.726918,245.518803 L324.751189,227.405599 L324.747458,227.176153 C324.631248,223.749284 321.818912,221.004637 318.362738,221.000006 L318.362738,221.000006 L318.354167,221 Z M392.354167,221 L392.122549,221.004003 C388.662734,221.123762 385.868224,223.916119 385.772158,227.403176 L385.772158,227.403176 L385.273082,245.518803 L370.162468,236.513051 L369.951105,236.39231 C366.973032,234.763412 363.218872,235.711264 361.379886,238.597212 C359.569589,241.43814 360.405079,245.208702 363.246006,247.018999 C363.298569,247.052493 363.351642,247.08518 363.405207,247.117047 L363.405207,247.117047 L379.965182,256.969099 L364.084237,266.013745 L363.866151,266.143001 C360.926495,267.954888 359.668743,271.609364 360.901013,274.860513 C361.954084,277.638876 365.060074,279.0375 367.838436,277.98443 C368.07207,277.895876 368.299252,277.791154 368.518331,277.671025 L368.518331,277.671025 L385.273082,268.483783 L385.249287,286.240234 L385.253052,286.477236 C385.373052,290.095967 388.341963,292.995104 391.990953,292.999994 L391.990953,292.999994 C395.72832,293 398.75072,289.9776 398.750714,286.240234 L398.750714,286.240234 L398.726918,268.481197 L415.183218,277.609009 L415.391667,277.719306 C418.187455,279.12854 421.621265,278.088267 423.15343,275.325967 C423.215478,275.214101 423.273849,275.100234 423.328447,274.984549 C424.833772,271.795035 423.618475,267.984454 420.544487,266.255407 L420.544487,266.255407 L404.034818,256.969099 L420.544487,247.682791 L420.755925,247.558816 C423.673529,245.776843 424.798765,242.068988 423.328447,238.953648 C421.949517,236.031941 418.463161,234.781273 415.541453,236.160204 C415.422221,236.216477 415.304925,236.276764 415.189766,236.340964 L415.189766,236.340964 L398.726918,245.518803 L398.751189,227.405599 L398.747458,227.176153 C398.631248,223.749284 395.818912,221.004637 392.362738,221.000006 L392.362738,221.000006 L392.354167,221 Z" id="Combined-Shape" fill="#FFFFFF"></path>
        <circle id="Oval" stroke="url(#linearGradient-1)" stroke-width="32" cx="256" cy="256" r="240"></circle>
    </g>
</svg>